solid OpenSCAD_Model
  facet normal 1 -0 0
    outer loop
      vertex 1 0 20
      vertex 1 0.5 0
      vertex 1 0.5 20
    endloop
  endfacet
  facet normal 1 0 0
    outer loop
      vertex 1 0.5 0
      vertex 1 0 20
      vertex 1 0 0
    endloop
  endfacet
  facet normal -1 0 0
    outer loop
      vertex 2 0 0
      vertex 2 0.5 20
      vertex 2 0.5 0
    endloop
  endfacet
  facet normal -1 -0 0
    outer loop
      vertex 2 0.5 20
      vertex 2 0 0
      vertex 2 0 20
    endloop
  endfacet
  facet normal 0 -1 0
    outer loop
      vertex 1 0.5 0
      vertex 2 0.5 20
      vertex 1 0.5 20
    endloop
  endfacet
  facet normal 0 -1 -0
    outer loop
      vertex 2 0.5 20
      vertex 1 0.5 0
      vertex 2 0.5 0
    endloop
  endfacet
  facet normal 1 -0 0
    outer loop
      vertex 3 0 20
      vertex 3 0.5 0
      vertex 3 0.5 20
    endloop
  endfacet
  facet normal 1 0 0
    outer loop
      vertex 3 0.5 0
      vertex 3 0 20
      vertex 3 0 0
    endloop
  endfacet
  facet normal -1 0 0
    outer loop
      vertex 4 0 0
      vertex 4 0.5 20
      vertex 4 0.5 0
    endloop
  endfacet
  facet normal -1 -0 0
    outer loop
      vertex 4 0.5 20
      vertex 4 0 0
      vertex 4 0 20
    endloop
  endfacet
  facet normal 0 -1 0
    outer loop
      vertex 3 0.5 0
      vertex 4 0.5 20
      vertex 3 0.5 20
    endloop
  endfacet
  facet normal 0 -1 -0
    outer loop
      vertex 4 0.5 20
      vertex 3 0.5 0
      vertex 4 0.5 0
    endloop
  endfacet
  facet normal 1 -0 0
    outer loop
      vertex 5 0 20
      vertex 5 0.5 0
      vertex 5 0.5 20
    endloop
  endfacet
  facet normal 1 0 0
    outer loop
      vertex 5 0.5 0
      vertex 5 0 20
      vertex 5 0 0
    endloop
  endfacet
  facet normal -1 0 0
    outer loop
      vertex 6 0 0
      vertex 6 0.5 20
      vertex 6 0.5 0
    endloop
  endfacet
  facet normal -1 -0 0
    outer loop
      vertex 6 0.5 20
      vertex 6 0 0
      vertex 6 0 20
    endloop
  endfacet
  facet normal 0 -1 0
    outer loop
      vertex 5 0.5 0
      vertex 6 0.5 20
      vertex 5 0.5 20
    endloop
  endfacet
  facet normal 0 -1 -0
    outer loop
      vertex 6 0.5 20
      vertex 5 0.5 0
      vertex 6 0.5 0
    endloop
  endfacet
  facet normal 1 -0 0
    outer loop
      vertex 7 0 20
      vertex 7 0.5 0
      vertex 7 0.5 20
    endloop
  endfacet
  facet normal 1 0 0
    outer loop
      vertex 7 0.5 0
      vertex 7 0 20
      vertex 7 0 0
    endloop
  endfacet
  facet normal -1 0 0
    outer loop
      vertex 8 0 0
      vertex 8 0.5 20
      vertex 8 0.5 0
    endloop
  endfacet
  facet normal -1 -0 0
    outer loop
      vertex 8 0.5 20
      vertex 8 0 0
      vertex 8 0 20
    endloop
  endfacet
  facet normal 0 -1 0
    outer loop
      vertex 7 0.5 0
      vertex 8 0.5 20
      vertex 7 0.5 20
    endloop
  endfacet
  facet normal 0 -1 -0
    outer loop
      vertex 8 0.5 20
      vertex 7 0.5 0
      vertex 8 0.5 0
    endloop
  endfacet
  facet normal 1 -0 0
    outer loop
      vertex 9 0 20
      vertex 9 0.5 0
      vertex 9 0.5 20
    endloop
  endfacet
  facet normal 1 0 0
    outer loop
      vertex 9 0.5 0
      vertex 9 0 20
      vertex 9 0 0
    endloop
  endfacet
  facet normal -1 0 0
    outer loop
      vertex 10 0 0
      vertex 10 0.5 20
      vertex 10 0.5 0
    endloop
  endfacet
  facet normal -1 -0 0
    outer loop
      vertex 10 0.5 20
      vertex 10 0 0
      vertex 10 0 20
    endloop
  endfacet
  facet normal 0 -1 0
    outer loop
      vertex 9 0.5 0
      vertex 10 0.5 20
      vertex 9 0.5 20
    endloop
  endfacet
  facet normal 0 -1 -0
    outer loop
      vertex 10 0.5 20
      vertex 9 0.5 0
      vertex 10 0.5 0
    endloop
  endfacet
  facet normal 1 -0 0
    outer loop
      vertex 11 0 20
      vertex 11 0.5 0
      vertex 11 0.5 20
    endloop
  endfacet
  facet normal 1 0 0
    outer loop
      vertex 11 0.5 0
      vertex 11 0 20
      vertex 11 0 0
    endloop
  endfacet
  facet normal -1 0 0
    outer loop
      vertex 12 0 0
      vertex 12 0.5 20
      vertex 12 0.5 0
    endloop
  endfacet
  facet normal -1 -0 0
    outer loop
      vertex 12 0.5 20
      vertex 12 0 0
      vertex 12 0 20
    endloop
  endfacet
  facet normal 0 -1 0
    outer loop
      vertex 11 0.5 0
      vertex 12 0.5 20
      vertex 11 0.5 20
    endloop
  endfacet
  facet normal 0 -1 -0
    outer loop
      vertex 12 0.5 20
      vertex 11 0.5 0
      vertex 12 0.5 0
    endloop
  endfacet
  facet normal 1 -0 0
    outer loop
      vertex 13 0 20
      vertex 13 0.5 0
      vertex 13 0.5 20
    endloop
  endfacet
  facet normal 1 0 0
    outer loop
      vertex 13 0.5 0
      vertex 13 0 20
      vertex 13 0 0
    endloop
  endfacet
  facet normal -1 0 0
    outer loop
      vertex 14 0 0
      vertex 14 0.5 20
      vertex 14 0.5 0
    endloop
  endfacet
  facet normal -1 -0 0
    outer loop
      vertex 14 0.5 20
      vertex 14 0 0
      vertex 14 0 20
    endloop
  endfacet
  facet normal 0 -1 0
    outer loop
      vertex 13 0.5 0
      vertex 14 0.5 20
      vertex 13 0.5 20
    endloop
  endfacet
  facet normal 0 -1 -0
    outer loop
      vertex 14 0.5 20
      vertex 13 0.5 0
      vertex 14 0.5 0
    endloop
  endfacet
  facet normal 1 -0 0
    outer loop
      vertex 15 0 20
      vertex 15 0.5 0
      vertex 15 0.5 20
    endloop
  endfacet
  facet normal 1 0 0
    outer loop
      vertex 15 0.5 0
      vertex 15 0 20
      vertex 15 0 0
    endloop
  endfacet
  facet normal -1 0 0
    outer loop
      vertex 16 0 0
      vertex 16 0.5 20
      vertex 16 0.5 0
    endloop
  endfacet
  facet normal -1 -0 0
    outer loop
      vertex 16 0.5 20
      vertex 16 0 0
      vertex 16 0 20
    endloop
  endfacet
  facet normal 0 -1 0
    outer loop
      vertex 15 0.5 0
      vertex 16 0.5 20
      vertex 15 0.5 20
    endloop
  endfacet
  facet normal 0 -1 -0
    outer loop
      vertex 16 0.5 20
      vertex 15 0.5 0
      vertex 16 0.5 0
    endloop
  endfacet
  facet normal 1 -0 0
    outer loop
      vertex 17 0 20
      vertex 17 0.5 0
      vertex 17 0.5 20
    endloop
  endfacet
  facet normal 1 0 0
    outer loop
      vertex 17 0.5 0
      vertex 17 0 20
      vertex 17 0 0
    endloop
  endfacet
  facet normal -1 0 0
    outer loop
      vertex 18 0 0
      vertex 18 0.5 20
      vertex 18 0.5 0
    endloop
  endfacet
  facet normal -1 -0 0
    outer loop
      vertex 18 0.5 20
      vertex 18 0 0
      vertex 18 0 20
    endloop
  endfacet
  facet normal 0 -1 0
    outer loop
      vertex 17 0.5 0
      vertex 18 0.5 20
      vertex 17 0.5 20
    endloop
  endfacet
  facet normal 0 -1 -0
    outer loop
      vertex 18 0.5 20
      vertex 17 0.5 0
      vertex 18 0.5 0
    endloop
  endfacet
  facet normal 1 -0 0
    outer loop
      vertex 19 0 20
      vertex 19 0.5 0
      vertex 19 0.5 20
    endloop
  endfacet
  facet normal 1 0 0
    outer loop
      vertex 19 0.5 0
      vertex 19 0 20
      vertex 19 0 0
    endloop
  endfacet
  facet normal -1 0 0
    outer loop
      vertex 20 0 0
      vertex 20 0.5 20
      vertex 20 0.5 0
    endloop
  endfacet
  facet normal -1 -0 0
    outer loop
      vertex 20 0.5 20
      vertex 20 0 0
      vertex 20 0 20
    endloop
  endfacet
  facet normal 0 -1 0
    outer loop
      vertex 19 0.5 0
      vertex 20 0.5 20
      vertex 19 0.5 20
    endloop
  endfacet
  facet normal 0 -1 -0
    outer loop
      vertex 20 0.5 20
      vertex 19 0.5 0
      vertex 20 0.5 0
    endloop
  endfacet
  facet normal 1 -0 0
    outer loop
      vertex 21 0 20
      vertex 21 0.5 0
      vertex 21 0.5 20
    endloop
  endfacet
  facet normal 1 0 0
    outer loop
      vertex 21 0.5 0
      vertex 21 0 20
      vertex 21 0 0
    endloop
  endfacet
  facet normal -1 0 0
    outer loop
      vertex 22 0 0
      vertex 22 0.5 20
      vertex 22 0.5 0
    endloop
  endfacet
  facet normal -1 -0 0
    outer loop
      vertex 22 0.5 20
      vertex 22 0 0
      vertex 22 0 20
    endloop
  endfacet
  facet normal 0 -1 0
    outer loop
      vertex 21 0.5 0
      vertex 22 0.5 20
      vertex 21 0.5 20
    endloop
  endfacet
  facet normal 0 -1 -0
    outer loop
      vertex 22 0.5 20
      vertex 21 0.5 0
      vertex 22 0.5 0
    endloop
  endfacet
  facet normal 1 -0 0
    outer loop
      vertex 23 0 20
      vertex 23 0.5 0
      vertex 23 0.5 20
    endloop
  endfacet
  facet normal 1 0 0
    outer loop
      vertex 23 0.5 0
      vertex 23 0 20
      vertex 23 0 0
    endloop
  endfacet
  facet normal -1 0 0
    outer loop
      vertex 24 0 0
      vertex 24 0.5 20
      vertex 24 0.5 0
    endloop
  endfacet
  facet normal -1 -0 0
    outer loop
      vertex 24 0.5 20
      vertex 24 0 0
      vertex 24 0 20
    endloop
  endfacet
  facet normal 0 -1 0
    outer loop
      vertex 23 0.5 0
      vertex 24 0.5 20
      vertex 23 0.5 20
    endloop
  endfacet
  facet normal 0 -1 -0
    outer loop
      vertex 24 0.5 20
      vertex 23 0.5 0
      vertex 24 0.5 0
    endloop
  endfacet
  facet normal 1 -0 0
    outer loop
      vertex 25 0 20
      vertex 25 0.5 0
      vertex 25 0.5 20
    endloop
  endfacet
  facet normal 1 0 0
    outer loop
      vertex 25 0.5 0
      vertex 25 0 20
      vertex 25 0 0
    endloop
  endfacet
  facet normal -1 0 0
    outer loop
      vertex 26 0 0
      vertex 26 0.5 20
      vertex 26 0.5 0
    endloop
  endfacet
  facet normal -1 -0 0
    outer loop
      vertex 26 0.5 20
      vertex 26 0 0
      vertex 26 0 20
    endloop
  endfacet
  facet normal 0 -1 0
    outer loop
      vertex 25 0.5 0
      vertex 26 0.5 20
      vertex 25 0.5 20
    endloop
  endfacet
  facet normal 0 -1 -0
    outer loop
      vertex 26 0.5 20
      vertex 25 0.5 0
      vertex 26 0.5 0
    endloop
  endfacet
  facet normal 1 -0 0
    outer loop
      vertex 27 0 20
      vertex 27 0.5 0
      vertex 27 0.5 20
    endloop
  endfacet
  facet normal 1 0 0
    outer loop
      vertex 27 0.5 0
      vertex 27 0 20
      vertex 27 0 0
    endloop
  endfacet
  facet normal -1 0 0
    outer loop
      vertex 28 0 0
      vertex 28 0.5 20
      vertex 28 0.5 0
    endloop
  endfacet
  facet normal -1 -0 0
    outer loop
      vertex 28 0.5 20
      vertex 28 0 0
      vertex 28 0 20
    endloop
  endfacet
  facet normal 0 -1 0
    outer loop
      vertex 27 0.5 0
      vertex 28 0.5 20
      vertex 27 0.5 20
    endloop
  endfacet
  facet normal 0 -1 -0
    outer loop
      vertex 28 0.5 20
      vertex 27 0.5 0
      vertex 28 0.5 0
    endloop
  endfacet
  facet normal 1 -0 0
    outer loop
      vertex 29 0 20
      vertex 29 0.5 0
      vertex 29 0.5 20
    endloop
  endfacet
  facet normal 1 0 0
    outer loop
      vertex 29 0.5 0
      vertex 29 0 20
      vertex 29 0 0
    endloop
  endfacet
  facet normal -1 0 0
    outer loop
      vertex 30 0 0
      vertex 30 0.5 20
      vertex 30 0.5 0
    endloop
  endfacet
  facet normal -1 -0 0
    outer loop
      vertex 30 0.5 20
      vertex 30 0 0
      vertex 30 0 20
    endloop
  endfacet
  facet normal 0 -1 0
    outer loop
      vertex 29 0.5 0
      vertex 30 0.5 20
      vertex 29 0.5 20
    endloop
  endfacet
  facet normal 0 -1 -0
    outer loop
      vertex 30 0.5 20
      vertex 29 0.5 0
      vertex 30 0.5 0
    endloop
  endfacet
  facet normal 1 -0 0
    outer loop
      vertex 31 0 20
      vertex 31 0.5 0
      vertex 31 0.5 20
    endloop
  endfacet
  facet normal 1 0 0
    outer loop
      vertex 31 0.5 0
      vertex 31 0 20
      vertex 31 0 0
    endloop
  endfacet
  facet normal -1 0 0
    outer loop
      vertex 32 0 0
      vertex 32 0.5 20
      vertex 32 0.5 0
    endloop
  endfacet
  facet normal -1 -0 0
    outer loop
      vertex 32 0.5 20
      vertex 32 0 0
      vertex 32 0 20
    endloop
  endfacet
  facet normal 0 -1 0
    outer loop
      vertex 31 0.5 0
      vertex 32 0.5 20
      vertex 31 0.5 20
    endloop
  endfacet
  facet normal 0 -1 -0
    outer loop
      vertex 32 0.5 20
      vertex 31 0.5 0
      vertex 32 0.5 0
    endloop
  endfacet
  facet normal 1 -0 0
    outer loop
      vertex 33 0 20
      vertex 33 0.5 0
      vertex 33 0.5 20
    endloop
  endfacet
  facet normal 1 0 0
    outer loop
      vertex 33 0.5 0
      vertex 33 0 20
      vertex 33 0 0
    endloop
  endfacet
  facet normal -1 0 0
    outer loop
      vertex 34 0 0
      vertex 34 0.5 20
      vertex 34 0.5 0
    endloop
  endfacet
  facet normal -1 -0 0
    outer loop
      vertex 34 0.5 20
      vertex 34 0 0
      vertex 34 0 20
    endloop
  endfacet
  facet normal 0 -1 0
    outer loop
      vertex 33 0.5 0
      vertex 34 0.5 20
      vertex 33 0.5 20
    endloop
  endfacet
  facet normal 0 -1 -0
    outer loop
      vertex 34 0.5 20
      vertex 33 0.5 0
      vertex 34 0.5 0
    endloop
  endfacet
  facet normal 1 -0 0
    outer loop
      vertex 35 0 20
      vertex 35 0.5 0
      vertex 35 0.5 20
    endloop
  endfacet
  facet normal 1 0 0
    outer loop
      vertex 35 0.5 0
      vertex 35 0 20
      vertex 35 0 0
    endloop
  endfacet
  facet normal -1 0 0
    outer loop
      vertex 36 0 0
      vertex 36 0.5 20
      vertex 36 0.5 0
    endloop
  endfacet
  facet normal -1 -0 0
    outer loop
      vertex 36 0.5 20
      vertex 36 0 0
      vertex 36 0 20
    endloop
  endfacet
  facet normal 0 -1 0
    outer loop
      vertex 35 0.5 0
      vertex 36 0.5 20
      vertex 35 0.5 20
    endloop
  endfacet
  facet normal 0 -1 -0
    outer loop
      vertex 36 0.5 20
      vertex 35 0.5 0
      vertex 36 0.5 0
    endloop
  endfacet
  facet normal 1 -0 0
    outer loop
      vertex 37 0 20
      vertex 37 0.5 0
      vertex 37 0.5 20
    endloop
  endfacet
  facet normal 1 0 0
    outer loop
      vertex 37 0.5 0
      vertex 37 0 20
      vertex 37 0 0
    endloop
  endfacet
  facet normal -1 0 0
    outer loop
      vertex 38 0 0
      vertex 38 0.5 20
      vertex 38 0.5 0
    endloop
  endfacet
  facet normal -1 -0 0
    outer loop
      vertex 38 0.5 20
      vertex 38 0 0
      vertex 38 0 20
    endloop
  endfacet
  facet normal 0 -1 0
    outer loop
      vertex 37 0.5 0
      vertex 38 0.5 20
      vertex 37 0.5 20
    endloop
  endfacet
  facet normal 0 -1 -0
    outer loop
      vertex 38 0.5 20
      vertex 37 0.5 0
      vertex 38 0.5 0
    endloop
  endfacet
  facet normal 1 -0 0
    outer loop
      vertex 39 0 20
      vertex 39 0.5 0
      vertex 39 0.5 20
    endloop
  endfacet
  facet normal 1 0 0
    outer loop
      vertex 39 0.5 0
      vertex 39 0 20
      vertex 39 0 0
    endloop
  endfacet
  facet normal -1 0 0
    outer loop
      vertex 40 0 0
      vertex 40 0.5 20
      vertex 40 0.5 0
    endloop
  endfacet
  facet normal -1 -0 0
    outer loop
      vertex 40 0.5 20
      vertex 40 0 0
      vertex 40 0 20
    endloop
  endfacet
  facet normal 0 -1 0
    outer loop
      vertex 39 0.5 0
      vertex 40 0.5 20
      vertex 39 0.5 20
    endloop
  endfacet
  facet normal 0 -1 -0
    outer loop
      vertex 40 0.5 20
      vertex 39 0.5 0
      vertex 40 0.5 0
    endloop
  endfacet
  facet normal 1 -0 0
    outer loop
      vertex 41 0 20
      vertex 41 0.5 0
      vertex 41 0.5 20
    endloop
  endfacet
  facet normal 1 0 0
    outer loop
      vertex 41 0.5 0
      vertex 41 0 20
      vertex 41 0 0
    endloop
  endfacet
  facet normal -1 0 0
    outer loop
      vertex 42 0 0
      vertex 42 0.5 20
      vertex 42 0.5 0
    endloop
  endfacet
  facet normal -1 -0 0
    outer loop
      vertex 42 0.5 20
      vertex 42 0 0
      vertex 42 0 20
    endloop
  endfacet
  facet normal 0 -1 0
    outer loop
      vertex 41 0.5 0
      vertex 42 0.5 20
      vertex 41 0.5 20
    endloop
  endfacet
  facet normal 0 -1 -0
    outer loop
      vertex 42 0.5 20
      vertex 41 0.5 0
      vertex 42 0.5 0
    endloop
  endfacet
  facet normal 1 -0 0
    outer loop
      vertex 43 0 20
      vertex 43 0.5 0
      vertex 43 0.5 20
    endloop
  endfacet
  facet normal 1 0 0
    outer loop
      vertex 43 0.5 0
      vertex 43 0 20
      vertex 43 0 0
    endloop
  endfacet
  facet normal -1 0 0
    outer loop
      vertex 44 0 0
      vertex 44 0.5 20
      vertex 44 0.5 0
    endloop
  endfacet
  facet normal -1 -0 0
    outer loop
      vertex 44 0.5 20
      vertex 44 0 0
      vertex 44 0 20
    endloop
  endfacet
  facet normal 0 -1 0
    outer loop
      vertex 43 0.5 0
      vertex 44 0.5 20
      vertex 43 0.5 20
    endloop
  endfacet
  facet normal 0 -1 -0
    outer loop
      vertex 44 0.5 20
      vertex 43 0.5 0
      vertex 44 0.5 0
    endloop
  endfacet
  facet normal 1 -0 0
    outer loop
      vertex 45 0 20
      vertex 45 0.5 0
      vertex 45 0.5 20
    endloop
  endfacet
  facet normal 1 0 0
    outer loop
      vertex 45 0.5 0
      vertex 45 0 20
      vertex 45 0 0
    endloop
  endfacet
  facet normal -1 0 0
    outer loop
      vertex 46 0 0
      vertex 46 0.5 20
      vertex 46 0.5 0
    endloop
  endfacet
  facet normal -1 -0 0
    outer loop
      vertex 46 0.5 20
      vertex 46 0 0
      vertex 46 0 20
    endloop
  endfacet
  facet normal 0 -1 0
    outer loop
      vertex 45 0.5 0
      vertex 46 0.5 20
      vertex 45 0.5 20
    endloop
  endfacet
  facet normal 0 -1 -0
    outer loop
      vertex 46 0.5 20
      vertex 45 0.5 0
      vertex 46 0.5 0
    endloop
  endfacet
  facet normal 1 -0 0
    outer loop
      vertex 47 0 20
      vertex 47 0.5 0
      vertex 47 0.5 20
    endloop
  endfacet
  facet normal 1 0 0
    outer loop
      vertex 47 0.5 0
      vertex 47 0 20
      vertex 47 0 0
    endloop
  endfacet
  facet normal -1 0 0
    outer loop
      vertex 48 0 0
      vertex 48 0.5 20
      vertex 48 0.5 0
    endloop
  endfacet
  facet normal -1 -0 0
    outer loop
      vertex 48 0.5 20
      vertex 48 0 0
      vertex 48 0 20
    endloop
  endfacet
  facet normal 0 -1 0
    outer loop
      vertex 47 0.5 0
      vertex 48 0.5 20
      vertex 47 0.5 20
    endloop
  endfacet
  facet normal 0 -1 -0
    outer loop
      vertex 48 0.5 20
      vertex 47 0.5 0
      vertex 48 0.5 0
    endloop
  endfacet
  facet normal 1 -0 0
    outer loop
      vertex 49 0 20
      vertex 49 0.5 0
      vertex 49 0.5 20
    endloop
  endfacet
  facet normal 1 0 0
    outer loop
      vertex 49 0.5 0
      vertex 49 0 20
      vertex 49 0 0
    endloop
  endfacet
  facet normal -1 0 0
    outer loop
      vertex 50 0 0
      vertex 50 0.5 20
      vertex 50 0.5 0
    endloop
  endfacet
  facet normal -1 -0 0
    outer loop
      vertex 50 0.5 20
      vertex 50 0 0
      vertex 50 0 20
    endloop
  endfacet
  facet normal 0 -1 0
    outer loop
      vertex 49 0.5 0
      vertex 50 0.5 20
      vertex 49 0.5 20
    endloop
  endfacet
  facet normal 0 -1 -0
    outer loop
      vertex 50 0.5 20
      vertex 49 0.5 0
      vertex 50 0.5 0
    endloop
  endfacet
  facet normal 1 -0 0
    outer loop
      vertex 51 0 20
      vertex 51 0.5 0
      vertex 51 0.5 20
    endloop
  endfacet
  facet normal 1 0 0
    outer loop
      vertex 51 0.5 0
      vertex 51 0 20
      vertex 51 0 0
    endloop
  endfacet
  facet normal -1 0 0
    outer loop
      vertex 52 0 0
      vertex 52 0.5 20
      vertex 52 0.5 0
    endloop
  endfacet
  facet normal -1 -0 0
    outer loop
      vertex 52 0.5 20
      vertex 52 0 0
      vertex 52 0 20
    endloop
  endfacet
  facet normal 0 -1 0
    outer loop
      vertex 51 0.5 0
      vertex 52 0.5 20
      vertex 51 0.5 20
    endloop
  endfacet
  facet normal 0 -1 -0
    outer loop
      vertex 52 0.5 20
      vertex 51 0.5 0
      vertex 52 0.5 0
    endloop
  endfacet
  facet normal 1 -0 0
    outer loop
      vertex 53 0 20
      vertex 53 0.5 0
      vertex 53 0.5 20
    endloop
  endfacet
  facet normal 1 0 0
    outer loop
      vertex 53 0.5 0
      vertex 53 0 20
      vertex 53 0 0
    endloop
  endfacet
  facet normal -1 0 0
    outer loop
      vertex 54 0 0
      vertex 54 0.5 20
      vertex 54 0.5 0
    endloop
  endfacet
  facet normal -1 -0 0
    outer loop
      vertex 54 0.5 20
      vertex 54 0 0
      vertex 54 0 20
    endloop
  endfacet
  facet normal 0 -1 0
    outer loop
      vertex 53 0.5 0
      vertex 54 0.5 20
      vertex 53 0.5 20
    endloop
  endfacet
  facet normal 0 -1 -0
    outer loop
      vertex 54 0.5 20
      vertex 53 0.5 0
      vertex 54 0.5 0
    endloop
  endfacet
  facet normal 1 -0 0
    outer loop
      vertex 55 0 20
      vertex 55 0.5 0
      vertex 55 0.5 20
    endloop
  endfacet
  facet normal 1 0 0
    outer loop
      vertex 55 0.5 0
      vertex 55 0 20
      vertex 55 0 0
    endloop
  endfacet
  facet normal -1 0 0
    outer loop
      vertex 56 0 0
      vertex 56 0.5 20
      vertex 56 0.5 0
    endloop
  endfacet
  facet normal -1 -0 0
    outer loop
      vertex 56 0.5 20
      vertex 56 0 0
      vertex 56 0 20
    endloop
  endfacet
  facet normal 0 -1 0
    outer loop
      vertex 55 0.5 0
      vertex 56 0.5 20
      vertex 55 0.5 20
    endloop
  endfacet
  facet normal 0 -1 -0
    outer loop
      vertex 56 0.5 20
      vertex 55 0.5 0
      vertex 56 0.5 0
    endloop
  endfacet
  facet normal 1 -0 0
    outer loop
      vertex 57 0 20
      vertex 57 0.5 0
      vertex 57 0.5 20
    endloop
  endfacet
  facet normal 1 0 0
    outer loop
      vertex 57 0.5 0
      vertex 57 0 20
      vertex 57 0 0
    endloop
  endfacet
  facet normal -1 0 0
    outer loop
      vertex 58 0 0
      vertex 58 0.5 20
      vertex 58 0.5 0
    endloop
  endfacet
  facet normal -1 -0 0
    outer loop
      vertex 58 0.5 20
      vertex 58 0 0
      vertex 58 0 20
    endloop
  endfacet
  facet normal 0 -1 0
    outer loop
      vertex 57 0.5 0
      vertex 58 0.5 20
      vertex 57 0.5 20
    endloop
  endfacet
  facet normal 0 -1 -0
    outer loop
      vertex 58 0.5 20
      vertex 57 0.5 0
      vertex 58 0.5 0
    endloop
  endfacet
  facet normal 1 -0 0
    outer loop
      vertex 59 0 20
      vertex 59 0.5 0
      vertex 59 0.5 20
    endloop
  endfacet
  facet normal 1 0 0
    outer loop
      vertex 59 0.5 0
      vertex 59 0 20
      vertex 59 0 0
    endloop
  endfacet
  facet normal 1 -0 0
    outer loop
      vertex 60 0.5 20
      vertex 60 10 0
      vertex 60 10 20
    endloop
  endfacet
  facet normal 1 0 0
    outer loop
      vertex 60 10 0
      vertex 60 0.5 20
      vertex 60 0.5 0
    endloop
  endfacet
  facet normal 0 -1 0
    outer loop
      vertex 59 0.5 0
      vertex 60 0.5 20
      vertex 59 0.5 20
    endloop
  endfacet
  facet normal 0 -1 -0
    outer loop
      vertex 60 0.5 20
      vertex 59 0.5 0
      vertex 60 0.5 0
    endloop
  endfacet
  facet normal -1 0 0
    outer loop
      vertex 0 0 0
      vertex 0 2 20
      vertex 0 2 0
    endloop
  endfacet
  facet normal -1 -0 0
    outer loop
      vertex 0 2 20
      vertex 0 0 0
      vertex 0 0 20
    endloop
  endfacet
  facet normal 0 0 -1
    outer loop
      vertex 1 0 0
      vertex 0 0 0
      vertex 1 0.5 0
    endloop
  endfacet
  facet normal 0 0 -1
    outer loop
      vertex 3 0 0
      vertex 2 0 0
      vertex 3 0.5 0
    endloop
  endfacet
  facet normal 0 0 -1
    outer loop
      vertex 5 0 0
      vertex 4 0 0
      vertex 5 0.5 0
    endloop
  endfacet
  facet normal 0 0 -1
    outer loop
      vertex 7 0 0
      vertex 6 0 0
      vertex 7 0.5 0
    endloop
  endfacet
  facet normal 0 0 -1
    outer loop
      vertex 9 0 0
      vertex 8 0 0
      vertex 9 0.5 0
    endloop
  endfacet
  facet normal 0 0 -1
    outer loop
      vertex 11 0 0
      vertex 10 0 0
      vertex 11 0.5 0
    endloop
  endfacet
  facet normal 0 0 -1
    outer loop
      vertex 13 0 0
      vertex 12 0 0
      vertex 13 0.5 0
    endloop
  endfacet
  facet normal 0 0 -1
    outer loop
      vertex 15 0 0
      vertex 14 0 0
      vertex 15 0.5 0
    endloop
  endfacet
  facet normal 0 0 -1
    outer loop
      vertex 17 0 0
      vertex 16 0 0
      vertex 17 0.5 0
    endloop
  endfacet
  facet normal 0 0 -1
    outer loop
      vertex 19 0 0
      vertex 18 0 0
      vertex 19 0.5 0
    endloop
  endfacet
  facet normal 0 0 -1
    outer loop
      vertex 21 0 0
      vertex 20 0 0
      vertex 21 0.5 0
    endloop
  endfacet
  facet normal 0 0 -1
    outer loop
      vertex 23 0 0
      vertex 22 0 0
      vertex 23 0.5 0
    endloop
  endfacet
  facet normal 0 0 -1
    outer loop
      vertex 25 0 0
      vertex 24 0 0
      vertex 25 0.5 0
    endloop
  endfacet
  facet normal 0 0 -1
    outer loop
      vertex 27 0 0
      vertex 26 0 0
      vertex 27 0.5 0
    endloop
  endfacet
  facet normal 0 0 -1
    outer loop
      vertex 29 0 0
      vertex 28 0 0
      vertex 29 0.5 0
    endloop
  endfacet
  facet normal 0 0 -1
    outer loop
      vertex 31 0 0
      vertex 30 0 0
      vertex 31 0.5 0
    endloop
  endfacet
  facet normal 0 0 -1
    outer loop
      vertex 33 0 0
      vertex 32 0 0
      vertex 33 0.5 0
    endloop
  endfacet
  facet normal 0 0 -1
    outer loop
      vertex 35 0 0
      vertex 34 0 0
      vertex 35 0.5 0
    endloop
  endfacet
  facet normal 0 0 -1
    outer loop
      vertex 37 0 0
      vertex 36 0 0
      vertex 37 0.5 0
    endloop
  endfacet
  facet normal 0 0 -1
    outer loop
      vertex 39 0 0
      vertex 38 0 0
      vertex 39 0.5 0
    endloop
  endfacet
  facet normal 0 0 -1
    outer loop
      vertex 41 0 0
      vertex 40 0 0
      vertex 41 0.5 0
    endloop
  endfacet
  facet normal 0 0 -1
    outer loop
      vertex 43 0 0
      vertex 42 0 0
      vertex 43 0.5 0
    endloop
  endfacet
  facet normal 0 0 -1
    outer loop
      vertex 45 0 0
      vertex 44 0 0
      vertex 45 0.5 0
    endloop
  endfacet
  facet normal 0 0 -1
    outer loop
      vertex 47 0 0
      vertex 46 0 0
      vertex 47 0.5 0
    endloop
  endfacet
  facet normal 0 0 -1
    outer loop
      vertex 49 0 0
      vertex 48 0 0
      vertex 49 0.5 0
    endloop
  endfacet
  facet normal 0 0 -1
    outer loop
      vertex 51 0 0
      vertex 50 0 0
      vertex 51 0.5 0
    endloop
  endfacet
  facet normal 0 0 -1
    outer loop
      vertex 53 0 0
      vertex 52 0 0
      vertex 53 0.5 0
    endloop
  endfacet
  facet normal 0 0 -1
    outer loop
      vertex 55 0 0
      vertex 54 0 0
      vertex 55 0.5 0
    endloop
  endfacet
  facet normal 0 0 -1
    outer loop
      vertex 57 0 0
      vertex 56 0 0
      vertex 57 0.5 0
    endloop
  endfacet
  facet normal 0 0 -1
    outer loop
      vertex 59 0 0
      vertex 58 0 0
      vertex 59 0.5 0
    endloop
  endfacet
  facet normal 0 0 -1
    outer loop
      vertex 59 0.5 0
      vertex 60 10 0
      vertex 60 0.5 0
    endloop
  endfacet
  facet normal 0 0 -1
    outer loop
      vertex 58 0.5 0
      vertex 59 0.5 0
      vertex 58 0 0
    endloop
  endfacet
  facet normal 0 0 -1
    outer loop
      vertex 59 0.5 0
      vertex 58 0.5 0
      vertex 60 10 0
    endloop
  endfacet
  facet normal 0 0 -1
    outer loop
      vertex 57 0.5 0
      vertex 60 10 0
      vertex 58 0.5 0
    endloop
  endfacet
  facet normal 0 0 -1
    outer loop
      vertex 56 0.5 0
      vertex 57 0.5 0
      vertex 56 0 0
    endloop
  endfacet
  facet normal 0 0 -1
    outer loop
      vertex 57 0.5 0
      vertex 56 0.5 0
      vertex 60 10 0
    endloop
  endfacet
  facet normal 0 0 -1
    outer loop
      vertex 55 0.5 0
      vertex 60 10 0
      vertex 56 0.5 0
    endloop
  endfacet
  facet normal 0 0 -1
    outer loop
      vertex 54 0.5 0
      vertex 55 0.5 0
      vertex 54 0 0
    endloop
  endfacet
  facet normal 0 0 -1
    outer loop
      vertex 55 0.5 0
      vertex 54 0.5 0
      vertex 60 10 0
    endloop
  endfacet
  facet normal 0 0 -1
    outer loop
      vertex 53 0.5 0
      vertex 60 10 0
      vertex 54 0.5 0
    endloop
  endfacet
  facet normal 0 0 -1
    outer loop
      vertex 52 0.5 0
      vertex 53 0.5 0
      vertex 52 0 0
    endloop
  endfacet
  facet normal 0 0 -1
    outer loop
      vertex 53 0.5 0
      vertex 52 0.5 0
      vertex 60 10 0
    endloop
  endfacet
  facet normal 0 0 -1
    outer loop
      vertex 51 0.5 0
      vertex 60 10 0
      vertex 52 0.5 0
    endloop
  endfacet
  facet normal 0 0 -1
    outer loop
      vertex 50 0.5 0
      vertex 51 0.5 0
      vertex 50 0 0
    endloop
  endfacet
  facet normal 0 0 -1
    outer loop
      vertex 51 0.5 0
      vertex 50 0.5 0
      vertex 60 10 0
    endloop
  endfacet
  facet normal 0 0 -1
    outer loop
      vertex 49 0.5 0
      vertex 60 10 0
      vertex 50 0.5 0
    endloop
  endfacet
  facet normal 0 0 -1
    outer loop
      vertex 48 0.5 0
      vertex 49 0.5 0
      vertex 48 0 0
    endloop
  endfacet
  facet normal 0 0 -1
    outer loop
      vertex 49 0.5 0
      vertex 48 0.5 0
      vertex 60 10 0
    endloop
  endfacet
  facet normal 0 0 -1
    outer loop
      vertex 47 0.5 0
      vertex 60 10 0
      vertex 48 0.5 0
    endloop
  endfacet
  facet normal 0 0 -1
    outer loop
      vertex 46 0.5 0
      vertex 47 0.5 0
      vertex 46 0 0
    endloop
  endfacet
  facet normal 0 0 -1
    outer loop
      vertex 47 0.5 0
      vertex 46 0.5 0
      vertex 60 10 0
    endloop
  endfacet
  facet normal 0 0 -1
    outer loop
      vertex 45 0.5 0
      vertex 60 10 0
      vertex 46 0.5 0
    endloop
  endfacet
  facet normal 0 0 -1
    outer loop
      vertex 44 0.5 0
      vertex 45 0.5 0
      vertex 44 0 0
    endloop
  endfacet
  facet normal 0 0 -1
    outer loop
      vertex 45 0.5 0
      vertex 44 0.5 0
      vertex 60 10 0
    endloop
  endfacet
  facet normal 0 0 -1
    outer loop
      vertex 43 0.5 0
      vertex 60 10 0
      vertex 44 0.5 0
    endloop
  endfacet
  facet normal 0 0 -1
    outer loop
      vertex 42 0.5 0
      vertex 43 0.5 0
      vertex 42 0 0
    endloop
  endfacet
  facet normal 0 0 -1
    outer loop
      vertex 43 0.5 0
      vertex 42 0.5 0
      vertex 60 10 0
    endloop
  endfacet
  facet normal 0 0 -1
    outer loop
      vertex 41 0.5 0
      vertex 60 10 0
      vertex 42 0.5 0
    endloop
  endfacet
  facet normal 0 0 -1
    outer loop
      vertex 40 0.5 0
      vertex 41 0.5 0
      vertex 40 0 0
    endloop
  endfacet
  facet normal 0 0 -1
    outer loop
      vertex 41 0.5 0
      vertex 40 0.5 0
      vertex 60 10 0
    endloop
  endfacet
  facet normal 0 0 -1
    outer loop
      vertex 39 0.5 0
      vertex 60 10 0
      vertex 40 0.5 0
    endloop
  endfacet
  facet normal 0 0 -1
    outer loop
      vertex 38 0.5 0
      vertex 39 0.5 0
      vertex 38 0 0
    endloop
  endfacet
  facet normal 0 0 -1
    outer loop
      vertex 38 0.5 0
      vertex 60 10 0
      vertex 39 0.5 0
    endloop
  endfacet
  facet normal 0 0 -1
    outer loop
      vertex 37 0.5 0
      vertex 60 10 0
      vertex 38 0.5 0
    endloop
  endfacet
  facet normal 0 0 -1
    outer loop
      vertex 36 0.5 0
      vertex 37 0.5 0
      vertex 36 0 0
    endloop
  endfacet
  facet normal 0 0 -1
    outer loop
      vertex 36 0.5 0
      vertex 60 10 0
      vertex 37 0.5 0
    endloop
  endfacet
  facet normal 0 0 -1
    outer loop
      vertex 35 0.5 0
      vertex 60 10 0
      vertex 36 0.5 0
    endloop
  endfacet
  facet normal 0 0 -1
    outer loop
      vertex 34 0.5 0
      vertex 35 0.5 0
      vertex 34 0 0
    endloop
  endfacet
  facet normal 0 0 -1
    outer loop
      vertex 34 0.5 0
      vertex 60 10 0
      vertex 35 0.5 0
    endloop
  endfacet
  facet normal 0 0 -1
    outer loop
      vertex 33 0.5 0
      vertex 60 10 0
      vertex 34 0.5 0
    endloop
  endfacet
  facet normal 0 0 -1
    outer loop
      vertex 32 0.5 0
      vertex 33 0.5 0
      vertex 32 0 0
    endloop
  endfacet
  facet normal 0 0 -1
    outer loop
      vertex 32 0.5 0
      vertex 60 10 0
      vertex 33 0.5 0
    endloop
  endfacet
  facet normal 0 0 -1
    outer loop
      vertex 31 0.5 0
      vertex 60 10 0
      vertex 32 0.5 0
    endloop
  endfacet
  facet normal 0 0 -1
    outer loop
      vertex 30 0.5 0
      vertex 31 0.5 0
      vertex 30 0 0
    endloop
  endfacet
  facet normal 0 0 -1
    outer loop
      vertex 30 0.5 0
      vertex 60 10 0
      vertex 31 0.5 0
    endloop
  endfacet
  facet normal 0 0 -1
    outer loop
      vertex 29 0.5 0
      vertex 60 10 0
      vertex 30 0.5 0
    endloop
  endfacet
  facet normal 0 0 -1
    outer loop
      vertex 28 0.5 0
      vertex 29 0.5 0
      vertex 28 0 0
    endloop
  endfacet
  facet normal 0 0 -1
    outer loop
      vertex 28 0.5 0
      vertex 60 10 0
      vertex 29 0.5 0
    endloop
  endfacet
  facet normal 0 0 -1
    outer loop
      vertex 27 0.5 0
      vertex 60 10 0
      vertex 28 0.5 0
    endloop
  endfacet
  facet normal 0 0 -1
    outer loop
      vertex 26 0.5 0
      vertex 27 0.5 0
      vertex 26 0 0
    endloop
  endfacet
  facet normal 0 0 -1
    outer loop
      vertex 26 0.5 0
      vertex 60 10 0
      vertex 27 0.5 0
    endloop
  endfacet
  facet normal 0 0 -1
    outer loop
      vertex 25 0.5 0
      vertex 60 10 0
      vertex 26 0.5 0
    endloop
  endfacet
  facet normal 0 0 -1
    outer loop
      vertex 24 0.5 0
      vertex 25 0.5 0
      vertex 24 0 0
    endloop
  endfacet
  facet normal 0 0 -1
    outer loop
      vertex 24 0.5 0
      vertex 60 10 0
      vertex 25 0.5 0
    endloop
  endfacet
  facet normal 0 0 -1
    outer loop
      vertex 23 0.5 0
      vertex 60 10 0
      vertex 24 0.5 0
    endloop
  endfacet
  facet normal 0 0 -1
    outer loop
      vertex 22 0.5 0
      vertex 23 0.5 0
      vertex 22 0 0
    endloop
  endfacet
  facet normal 0 0 -1
    outer loop
      vertex 22 0.5 0
      vertex 60 10 0
      vertex 23 0.5 0
    endloop
  endfacet
  facet normal 0 0 -1
    outer loop
      vertex 21 0.5 0
      vertex 60 10 0
      vertex 22 0.5 0
    endloop
  endfacet
  facet normal 0 0 -1
    outer loop
      vertex 20 0.5 0
      vertex 21 0.5 0
      vertex 20 0 0
    endloop
  endfacet
  facet normal 0 0 -1
    outer loop
      vertex 20 0.5 0
      vertex 60 10 0
      vertex 21 0.5 0
    endloop
  endfacet
  facet normal 0 0 -1
    outer loop
      vertex 19 0.5 0
      vertex 60 10 0
      vertex 20 0.5 0
    endloop
  endfacet
  facet normal 0 0 -1
    outer loop
      vertex 18 0.5 0
      vertex 19 0.5 0
      vertex 18 0 0
    endloop
  endfacet
  facet normal 0 0 -1
    outer loop
      vertex 18 0.5 0
      vertex 60 10 0
      vertex 19 0.5 0
    endloop
  endfacet
  facet normal 0 0 -1
    outer loop
      vertex 17 0.5 0
      vertex 60 10 0
      vertex 18 0.5 0
    endloop
  endfacet
  facet normal 0 0 -1
    outer loop
      vertex 16 0.5 0
      vertex 17 0.5 0
      vertex 16 0 0
    endloop
  endfacet
  facet normal 0 0 -1
    outer loop
      vertex 16 0.5 0
      vertex 60 10 0
      vertex 17 0.5 0
    endloop
  endfacet
  facet normal 0 0 -1
    outer loop
      vertex 0 2 0
      vertex 16 0.5 0
      vertex 15 0.5 0
    endloop
  endfacet
  facet normal 0 0 -1
    outer loop
      vertex 14 0.5 0
      vertex 15 0.5 0
      vertex 14 0 0
    endloop
  endfacet
  facet normal 0 0 -1
    outer loop
      vertex 0 2 0
      vertex 15 0.5 0
      vertex 14 0.5 0
    endloop
  endfacet
  facet normal 0 0 -1
    outer loop
      vertex 0 2 0
      vertex 14 0.5 0
      vertex 13 0.5 0
    endloop
  endfacet
  facet normal 0 0 -1
    outer loop
      vertex 12 0.5 0
      vertex 13 0.5 0
      vertex 12 0 0
    endloop
  endfacet
  facet normal 0 0 -1
    outer loop
      vertex 0 2 0
      vertex 13 0.5 0
      vertex 12 0.5 0
    endloop
  endfacet
  facet normal 0 0 -1
    outer loop
      vertex 0 2 0
      vertex 12 0.5 0
      vertex 11 0.5 0
    endloop
  endfacet
  facet normal 0 0 -1
    outer loop
      vertex 10 0.5 0
      vertex 11 0.5 0
      vertex 10 0 0
    endloop
  endfacet
  facet normal 0 0 -1
    outer loop
      vertex 0 2 0
      vertex 11 0.5 0
      vertex 10 0.5 0
    endloop
  endfacet
  facet normal 0 0 -1
    outer loop
      vertex 0 2 0
      vertex 10 0.5 0
      vertex 9 0.5 0
    endloop
  endfacet
  facet normal 0 0 -1
    outer loop
      vertex 8 0.5 0
      vertex 9 0.5 0
      vertex 8 0 0
    endloop
  endfacet
  facet normal 0 0 -1
    outer loop
      vertex 0 2 0
      vertex 9 0.5 0
      vertex 8 0.5 0
    endloop
  endfacet
  facet normal 0 0 -1
    outer loop
      vertex 0 2 0
      vertex 8 0.5 0
      vertex 7 0.5 0
    endloop
  endfacet
  facet normal 0 0 -1
    outer loop
      vertex 6 0.5 0
      vertex 7 0.5 0
      vertex 6 0 0
    endloop
  endfacet
  facet normal 0 0 -1
    outer loop
      vertex 0 2 0
      vertex 7 0.5 0
      vertex 6 0.5 0
    endloop
  endfacet
  facet normal 0 0 -1
    outer loop
      vertex 0 2 0
      vertex 6 0.5 0
      vertex 5 0.5 0
    endloop
  endfacet
  facet normal 0 0 -1
    outer loop
      vertex 4 0.5 0
      vertex 5 0.5 0
      vertex 4 0 0
    endloop
  endfacet
  facet normal 0 0 -1
    outer loop
      vertex 0 2 0
      vertex 5 0.5 0
      vertex 4 0.5 0
    endloop
  endfacet
  facet normal 0 0 -1
    outer loop
      vertex 0 2 0
      vertex 4 0.5 0
      vertex 3 0.5 0
    endloop
  endfacet
  facet normal 0 0 -1
    outer loop
      vertex 2 0.5 0
      vertex 3 0.5 0
      vertex 2 0 0
    endloop
  endfacet
  facet normal 0 0 -1
    outer loop
      vertex 0 2 0
      vertex 3 0.5 0
      vertex 2 0.5 0
    endloop
  endfacet
  facet normal 0 0 -1
    outer loop
      vertex 0 2 0
      vertex 2 0.5 0
      vertex 1 0.5 0
    endloop
  endfacet
  facet normal 0 0 -1
    outer loop
      vertex 16 0.5 0
      vertex 0 2 0
      vertex 60 10 0
    endloop
  endfacet
  facet normal 0 0 -1
    outer loop
      vertex 0 2 0
      vertex 1 0.5 0
      vertex 0 0 0
    endloop
  endfacet
  facet normal -0.132164 0.991228 0
    outer loop
      vertex 60 10 0
      vertex 0 2 20
      vertex 60 10 20
    endloop
  endfacet
  facet normal -0.132164 0.991228 0
    outer loop
      vertex 0 2 20
      vertex 60 10 0
      vertex 0 2 0
    endloop
  endfacet
  facet normal 0 -1 0
    outer loop
      vertex 0 0 0
      vertex 1 0 20
      vertex 0 0 20
    endloop
  endfacet
  facet normal 0 -1 -0
    outer loop
      vertex 1 0 20
      vertex 0 0 0
      vertex 1 0 0
    endloop
  endfacet
  facet normal 0 -1 0
    outer loop
      vertex 2 0 0
      vertex 3 0 20
      vertex 2 0 20
    endloop
  endfacet
  facet normal 0 -1 -0
    outer loop
      vertex 3 0 20
      vertex 2 0 0
      vertex 3 0 0
    endloop
  endfacet
  facet normal 0 -1 0
    outer loop
      vertex 4 0 0
      vertex 5 0 20
      vertex 4 0 20
    endloop
  endfacet
  facet normal 0 -1 -0
    outer loop
      vertex 5 0 20
      vertex 4 0 0
      vertex 5 0 0
    endloop
  endfacet
  facet normal 0 -1 0
    outer loop
      vertex 6 0 0
      vertex 7 0 20
      vertex 6 0 20
    endloop
  endfacet
  facet normal 0 -1 -0
    outer loop
      vertex 7 0 20
      vertex 6 0 0
      vertex 7 0 0
    endloop
  endfacet
  facet normal 0 -1 0
    outer loop
      vertex 8 0 0
      vertex 9 0 20
      vertex 8 0 20
    endloop
  endfacet
  facet normal 0 -1 -0
    outer loop
      vertex 9 0 20
      vertex 8 0 0
      vertex 9 0 0
    endloop
  endfacet
  facet normal 0 -1 0
    outer loop
      vertex 10 0 0
      vertex 11 0 20
      vertex 10 0 20
    endloop
  endfacet
  facet normal 0 -1 -0
    outer loop
      vertex 11 0 20
      vertex 10 0 0
      vertex 11 0 0
    endloop
  endfacet
  facet normal 0 -1 0
    outer loop
      vertex 12 0 0
      vertex 13 0 20
      vertex 12 0 20
    endloop
  endfacet
  facet normal 0 -1 -0
    outer loop
      vertex 13 0 20
      vertex 12 0 0
      vertex 13 0 0
    endloop
  endfacet
  facet normal 0 -1 0
    outer loop
      vertex 14 0 0
      vertex 15 0 20
      vertex 14 0 20
    endloop
  endfacet
  facet normal 0 -1 -0
    outer loop
      vertex 15 0 20
      vertex 14 0 0
      vertex 15 0 0
    endloop
  endfacet
  facet normal 0 -1 0
    outer loop
      vertex 16 0 0
      vertex 17 0 20
      vertex 16 0 20
    endloop
  endfacet
  facet normal 0 -1 -0
    outer loop
      vertex 17 0 20
      vertex 16 0 0
      vertex 17 0 0
    endloop
  endfacet
  facet normal 0 -1 0
    outer loop
      vertex 18 0 0
      vertex 19 0 20
      vertex 18 0 20
    endloop
  endfacet
  facet normal 0 -1 -0
    outer loop
      vertex 19 0 20
      vertex 18 0 0
      vertex 19 0 0
    endloop
  endfacet
  facet normal 0 -1 0
    outer loop
      vertex 20 0 0
      vertex 21 0 20
      vertex 20 0 20
    endloop
  endfacet
  facet normal 0 -1 -0
    outer loop
      vertex 21 0 20
      vertex 20 0 0
      vertex 21 0 0
    endloop
  endfacet
  facet normal 0 -1 0
    outer loop
      vertex 22 0 0
      vertex 23 0 20
      vertex 22 0 20
    endloop
  endfacet
  facet normal 0 -1 -0
    outer loop
      vertex 23 0 20
      vertex 22 0 0
      vertex 23 0 0
    endloop
  endfacet
  facet normal 0 -1 0
    outer loop
      vertex 24 0 0
      vertex 25 0 20
      vertex 24 0 20
    endloop
  endfacet
  facet normal 0 -1 -0
    outer loop
      vertex 25 0 20
      vertex 24 0 0
      vertex 25 0 0
    endloop
  endfacet
  facet normal 0 -1 0
    outer loop
      vertex 26 0 0
      vertex 27 0 20
      vertex 26 0 20
    endloop
  endfacet
  facet normal 0 -1 -0
    outer loop
      vertex 27 0 20
      vertex 26 0 0
      vertex 27 0 0
    endloop
  endfacet
  facet normal 0 -1 0
    outer loop
      vertex 28 0 0
      vertex 29 0 20
      vertex 28 0 20
    endloop
  endfacet
  facet normal 0 -1 -0
    outer loop
      vertex 29 0 20
      vertex 28 0 0
      vertex 29 0 0
    endloop
  endfacet
  facet normal 0 -1 0
    outer loop
      vertex 30 0 0
      vertex 31 0 20
      vertex 30 0 20
    endloop
  endfacet
  facet normal 0 -1 -0
    outer loop
      vertex 31 0 20
      vertex 30 0 0
      vertex 31 0 0
    endloop
  endfacet
  facet normal 0 -1 0
    outer loop
      vertex 32 0 0
      vertex 33 0 20
      vertex 32 0 20
    endloop
  endfacet
  facet normal 0 -1 -0
    outer loop
      vertex 33 0 20
      vertex 32 0 0
      vertex 33 0 0
    endloop
  endfacet
  facet normal 0 -1 0
    outer loop
      vertex 34 0 0
      vertex 35 0 20
      vertex 34 0 20
    endloop
  endfacet
  facet normal 0 -1 -0
    outer loop
      vertex 35 0 20
      vertex 34 0 0
      vertex 35 0 0
    endloop
  endfacet
  facet normal 0 -1 0
    outer loop
      vertex 36 0 0
      vertex 37 0 20
      vertex 36 0 20
    endloop
  endfacet
  facet normal 0 -1 -0
    outer loop
      vertex 37 0 20
      vertex 36 0 0
      vertex 37 0 0
    endloop
  endfacet
  facet normal 0 -1 0
    outer loop
      vertex 38 0 0
      vertex 39 0 20
      vertex 38 0 20
    endloop
  endfacet
  facet normal 0 -1 -0
    outer loop
      vertex 39 0 20
      vertex 38 0 0
      vertex 39 0 0
    endloop
  endfacet
  facet normal 0 -1 0
    outer loop
      vertex 40 0 0
      vertex 41 0 20
      vertex 40 0 20
    endloop
  endfacet
  facet normal 0 -1 -0
    outer loop
      vertex 41 0 20
      vertex 40 0 0
      vertex 41 0 0
    endloop
  endfacet
  facet normal 0 -1 0
    outer loop
      vertex 42 0 0
      vertex 43 0 20
      vertex 42 0 20
    endloop
  endfacet
  facet normal 0 -1 -0
    outer loop
      vertex 43 0 20
      vertex 42 0 0
      vertex 43 0 0
    endloop
  endfacet
  facet normal 0 -1 0
    outer loop
      vertex 44 0 0
      vertex 45 0 20
      vertex 44 0 20
    endloop
  endfacet
  facet normal 0 -1 -0
    outer loop
      vertex 45 0 20
      vertex 44 0 0
      vertex 45 0 0
    endloop
  endfacet
  facet normal 0 -1 0
    outer loop
      vertex 46 0 0
      vertex 47 0 20
      vertex 46 0 20
    endloop
  endfacet
  facet normal 0 -1 -0
    outer loop
      vertex 47 0 20
      vertex 46 0 0
      vertex 47 0 0
    endloop
  endfacet
  facet normal 0 -1 0
    outer loop
      vertex 48 0 0
      vertex 49 0 20
      vertex 48 0 20
    endloop
  endfacet
  facet normal 0 -1 -0
    outer loop
      vertex 49 0 20
      vertex 48 0 0
      vertex 49 0 0
    endloop
  endfacet
  facet normal 0 -1 0
    outer loop
      vertex 50 0 0
      vertex 51 0 20
      vertex 50 0 20
    endloop
  endfacet
  facet normal 0 -1 -0
    outer loop
      vertex 51 0 20
      vertex 50 0 0
      vertex 51 0 0
    endloop
  endfacet
  facet normal 0 -1 0
    outer loop
      vertex 52 0 0
      vertex 53 0 20
      vertex 52 0 20
    endloop
  endfacet
  facet normal 0 -1 -0
    outer loop
      vertex 53 0 20
      vertex 52 0 0
      vertex 53 0 0
    endloop
  endfacet
  facet normal 0 -1 0
    outer loop
      vertex 54 0 0
      vertex 55 0 20
      vertex 54 0 20
    endloop
  endfacet
  facet normal 0 -1 -0
    outer loop
      vertex 55 0 20
      vertex 54 0 0
      vertex 55 0 0
    endloop
  endfacet
  facet normal 0 -1 0
    outer loop
      vertex 56 0 0
      vertex 57 0 20
      vertex 56 0 20
    endloop
  endfacet
  facet normal 0 -1 -0
    outer loop
      vertex 57 0 20
      vertex 56 0 0
      vertex 57 0 0
    endloop
  endfacet
  facet normal 0 -1 0
    outer loop
      vertex 58 0 0
      vertex 59 0 20
      vertex 58 0 20
    endloop
  endfacet
  facet normal 0 -1 -0
    outer loop
      vertex 59 0 20
      vertex 58 0 0
      vertex 59 0 0
    endloop
  endfacet
  facet normal 0 0 1
    outer loop
      vertex 60 10 20
      vertex 59 0.5 20
      vertex 60 0.5 20
    endloop
  endfacet
  facet normal 0 0 1
    outer loop
      vertex 59 0.5 20
      vertex 58 0.5 20
      vertex 59 0 20
    endloop
  endfacet
  facet normal 0 0 1
    outer loop
      vertex 60 10 20
      vertex 58 0.5 20
      vertex 59 0.5 20
    endloop
  endfacet
  facet normal 0 0 1
    outer loop
      vertex 60 10 20
      vertex 57 0.5 20
      vertex 58 0.5 20
    endloop
  endfacet
  facet normal 0 0 1
    outer loop
      vertex 57 0.5 20
      vertex 56 0.5 20
      vertex 57 0 20
    endloop
  endfacet
  facet normal 0 0 1
    outer loop
      vertex 60 10 20
      vertex 56 0.5 20
      vertex 57 0.5 20
    endloop
  endfacet
  facet normal 0 0 1
    outer loop
      vertex 60 10 20
      vertex 55 0.5 20
      vertex 56 0.5 20
    endloop
  endfacet
  facet normal 0 0 1
    outer loop
      vertex 55 0.5 20
      vertex 54 0.5 20
      vertex 55 0 20
    endloop
  endfacet
  facet normal 0 0 1
    outer loop
      vertex 60 10 20
      vertex 54 0.5 20
      vertex 55 0.5 20
    endloop
  endfacet
  facet normal 0 0 1
    outer loop
      vertex 60 10 20
      vertex 53 0.5 20
      vertex 54 0.5 20
    endloop
  endfacet
  facet normal 0 0 1
    outer loop
      vertex 53 0.5 20
      vertex 52 0.5 20
      vertex 53 0 20
    endloop
  endfacet
  facet normal 0 0 1
    outer loop
      vertex 60 10 20
      vertex 52 0.5 20
      vertex 53 0.5 20
    endloop
  endfacet
  facet normal 0 0 1
    outer loop
      vertex 60 10 20
      vertex 51 0.5 20
      vertex 52 0.5 20
    endloop
  endfacet
  facet normal 0 0 1
    outer loop
      vertex 51 0.5 20
      vertex 50 0.5 20
      vertex 51 0 20
    endloop
  endfacet
  facet normal 0 0 1
    outer loop
      vertex 60 10 20
      vertex 50 0.5 20
      vertex 51 0.5 20
    endloop
  endfacet
  facet normal 0 0 1
    outer loop
      vertex 60 10 20
      vertex 49 0.5 20
      vertex 50 0.5 20
    endloop
  endfacet
  facet normal 0 0 1
    outer loop
      vertex 49 0.5 20
      vertex 48 0.5 20
      vertex 49 0 20
    endloop
  endfacet
  facet normal 0 0 1
    outer loop
      vertex 60 10 20
      vertex 48 0.5 20
      vertex 49 0.5 20
    endloop
  endfacet
  facet normal 0 0 1
    outer loop
      vertex 60 10 20
      vertex 47 0.5 20
      vertex 48 0.5 20
    endloop
  endfacet
  facet normal 0 0 1
    outer loop
      vertex 47 0.5 20
      vertex 46 0.5 20
      vertex 47 0 20
    endloop
  endfacet
  facet normal 0 0 1
    outer loop
      vertex 60 10 20
      vertex 46 0.5 20
      vertex 47 0.5 20
    endloop
  endfacet
  facet normal 0 0 1
    outer loop
      vertex 60 10 20
      vertex 45 0.5 20
      vertex 46 0.5 20
    endloop
  endfacet
  facet normal 0 0 1
    outer loop
      vertex 45 0.5 20
      vertex 44 0.5 20
      vertex 45 0 20
    endloop
  endfacet
  facet normal 0 0 1
    outer loop
      vertex 60 10 20
      vertex 44 0.5 20
      vertex 45 0.5 20
    endloop
  endfacet
  facet normal 0 0 1
    outer loop
      vertex 60 10 20
      vertex 43 0.5 20
      vertex 44 0.5 20
    endloop
  endfacet
  facet normal 0 0 1
    outer loop
      vertex 43 0.5 20
      vertex 42 0.5 20
      vertex 43 0 20
    endloop
  endfacet
  facet normal 0 0 1
    outer loop
      vertex 60 10 20
      vertex 42 0.5 20
      vertex 43 0.5 20
    endloop
  endfacet
  facet normal 0 0 1
    outer loop
      vertex 60 10 20
      vertex 41 0.5 20
      vertex 42 0.5 20
    endloop
  endfacet
  facet normal 0 0 1
    outer loop
      vertex 41 0.5 20
      vertex 40 0.5 20
      vertex 41 0 20
    endloop
  endfacet
  facet normal 0 0 1
    outer loop
      vertex 60 10 20
      vertex 40 0.5 20
      vertex 41 0.5 20
    endloop
  endfacet
  facet normal 0 0 1
    outer loop
      vertex 60 10 20
      vertex 39 0.5 20
      vertex 40 0.5 20
    endloop
  endfacet
  facet normal 0 0 1
    outer loop
      vertex 39 0.5 20
      vertex 38 0.5 20
      vertex 39 0 20
    endloop
  endfacet
  facet normal 0 0 1
    outer loop
      vertex 60 10 20
      vertex 38 0.5 20
      vertex 39 0.5 20
    endloop
  endfacet
  facet normal 0 0 1
    outer loop
      vertex 60 10 20
      vertex 37 0.5 20
      vertex 38 0.5 20
    endloop
  endfacet
  facet normal 0 0 1
    outer loop
      vertex 37 0.5 20
      vertex 36 0.5 20
      vertex 37 0 20
    endloop
  endfacet
  facet normal 0 0 1
    outer loop
      vertex 60 10 20
      vertex 36 0.5 20
      vertex 37 0.5 20
    endloop
  endfacet
  facet normal 0 0 1
    outer loop
      vertex 60 10 20
      vertex 35 0.5 20
      vertex 36 0.5 20
    endloop
  endfacet
  facet normal 0 0 1
    outer loop
      vertex 35 0.5 20
      vertex 34 0.5 20
      vertex 35 0 20
    endloop
  endfacet
  facet normal 0 0 1
    outer loop
      vertex 60 10 20
      vertex 34 0.5 20
      vertex 35 0.5 20
    endloop
  endfacet
  facet normal 0 0 1
    outer loop
      vertex 60 10 20
      vertex 33 0.5 20
      vertex 34 0.5 20
    endloop
  endfacet
  facet normal 0 0 1
    outer loop
      vertex 33 0.5 20
      vertex 32 0.5 20
      vertex 33 0 20
    endloop
  endfacet
  facet normal 0 0 1
    outer loop
      vertex 60 10 20
      vertex 32 0.5 20
      vertex 33 0.5 20
    endloop
  endfacet
  facet normal 0 0 1
    outer loop
      vertex 60 10 20
      vertex 31 0.5 20
      vertex 32 0.5 20
    endloop
  endfacet
  facet normal 0 0 1
    outer loop
      vertex 31 0.5 20
      vertex 30 0.5 20
      vertex 31 0 20
    endloop
  endfacet
  facet normal 0 0 1
    outer loop
      vertex 60 10 20
      vertex 30 0.5 20
      vertex 31 0.5 20
    endloop
  endfacet
  facet normal 0 0 1
    outer loop
      vertex 60 10 20
      vertex 29 0.5 20
      vertex 30 0.5 20
    endloop
  endfacet
  facet normal 0 0 1
    outer loop
      vertex 29 0.5 20
      vertex 28 0.5 20
      vertex 29 0 20
    endloop
  endfacet
  facet normal 0 0 1
    outer loop
      vertex 60 10 20
      vertex 28 0.5 20
      vertex 29 0.5 20
    endloop
  endfacet
  facet normal 0 0 1
    outer loop
      vertex 60 10 20
      vertex 27 0.5 20
      vertex 28 0.5 20
    endloop
  endfacet
  facet normal 0 0 1
    outer loop
      vertex 27 0.5 20
      vertex 26 0.5 20
      vertex 27 0 20
    endloop
  endfacet
  facet normal 0 0 1
    outer loop
      vertex 60 10 20
      vertex 26 0.5 20
      vertex 27 0.5 20
    endloop
  endfacet
  facet normal 0 0 1
    outer loop
      vertex 60 10 20
      vertex 25 0.5 20
      vertex 26 0.5 20
    endloop
  endfacet
  facet normal 0 0 1
    outer loop
      vertex 25 0.5 20
      vertex 24 0.5 20
      vertex 25 0 20
    endloop
  endfacet
  facet normal 0 0 1
    outer loop
      vertex 60 10 20
      vertex 24 0.5 20
      vertex 25 0.5 20
    endloop
  endfacet
  facet normal 0 0 1
    outer loop
      vertex 60 10 20
      vertex 23 0.5 20
      vertex 24 0.5 20
    endloop
  endfacet
  facet normal 0 0 1
    outer loop
      vertex 23 0.5 20
      vertex 22 0.5 20
      vertex 23 0 20
    endloop
  endfacet
  facet normal 0 0 1
    outer loop
      vertex 60 10 20
      vertex 22 0.5 20
      vertex 23 0.5 20
    endloop
  endfacet
  facet normal 0 0 1
    outer loop
      vertex 60 10 20
      vertex 21 0.5 20
      vertex 22 0.5 20
    endloop
  endfacet
  facet normal 0 0 1
    outer loop
      vertex 21 0.5 20
      vertex 20 0.5 20
      vertex 21 0 20
    endloop
  endfacet
  facet normal 0 0 1
    outer loop
      vertex 60 10 20
      vertex 20 0.5 20
      vertex 21 0.5 20
    endloop
  endfacet
  facet normal 0 0 1
    outer loop
      vertex 60 10 20
      vertex 19 0.5 20
      vertex 20 0.5 20
    endloop
  endfacet
  facet normal 0 0 1
    outer loop
      vertex 19 0.5 20
      vertex 18 0.5 20
      vertex 19 0 20
    endloop
  endfacet
  facet normal 0 0 1
    outer loop
      vertex 60 10 20
      vertex 18 0.5 20
      vertex 19 0.5 20
    endloop
  endfacet
  facet normal 0 0 1
    outer loop
      vertex 60 10 20
      vertex 17 0.5 20
      vertex 18 0.5 20
    endloop
  endfacet
  facet normal 0 0 1
    outer loop
      vertex 17 0.5 20
      vertex 16 0.5 20
      vertex 17 0 20
    endloop
  endfacet
  facet normal 0 0 1
    outer loop
      vertex 60 10 20
      vertex 16 0.5 20
      vertex 17 0.5 20
    endloop
  endfacet
  facet normal -0 0 1
    outer loop
      vertex 0 2 20
      vertex 16 0.5 20
      vertex 60 10 20
    endloop
  endfacet
  facet normal 0 0 1
    outer loop
      vertex 15 0.5 20
      vertex 14 0.5 20
      vertex 15 0 20
    endloop
  endfacet
  facet normal 0 0 1
    outer loop
      vertex 16 0.5 20
      vertex 0 2 20
      vertex 15 0.5 20
    endloop
  endfacet
  facet normal 0 0 1
    outer loop
      vertex 15 0.5 20
      vertex 0 2 20
      vertex 14 0.5 20
    endloop
  endfacet
  facet normal 0 0 1
    outer loop
      vertex 13 0.5 20
      vertex 12 0.5 20
      vertex 13 0 20
    endloop
  endfacet
  facet normal 0 0 1
    outer loop
      vertex 14 0.5 20
      vertex 0 2 20
      vertex 13 0.5 20
    endloop
  endfacet
  facet normal 0 0 1
    outer loop
      vertex 13 0.5 20
      vertex 0 2 20
      vertex 12 0.5 20
    endloop
  endfacet
  facet normal 0 0 1
    outer loop
      vertex 11 0.5 20
      vertex 10 0.5 20
      vertex 11 0 20
    endloop
  endfacet
  facet normal 0 0 1
    outer loop
      vertex 12 0.5 20
      vertex 0 2 20
      vertex 11 0.5 20
    endloop
  endfacet
  facet normal 0 0 1
    outer loop
      vertex 11 0.5 20
      vertex 0 2 20
      vertex 10 0.5 20
    endloop
  endfacet
  facet normal 0 0 1
    outer loop
      vertex 9 0.5 20
      vertex 8 0.5 20
      vertex 9 0 20
    endloop
  endfacet
  facet normal 0 0 1
    outer loop
      vertex 10 0.5 20
      vertex 0 2 20
      vertex 9 0.5 20
    endloop
  endfacet
  facet normal 0 0 1
    outer loop
      vertex 9 0.5 20
      vertex 0 2 20
      vertex 8 0.5 20
    endloop
  endfacet
  facet normal 0 0 1
    outer loop
      vertex 7 0.5 20
      vertex 6 0.5 20
      vertex 7 0 20
    endloop
  endfacet
  facet normal 0 0 1
    outer loop
      vertex 8 0.5 20
      vertex 0 2 20
      vertex 7 0.5 20
    endloop
  endfacet
  facet normal 0 0 1
    outer loop
      vertex 7 0.5 20
      vertex 0 2 20
      vertex 6 0.5 20
    endloop
  endfacet
  facet normal 0 0 1
    outer loop
      vertex 5 0.5 20
      vertex 4 0.5 20
      vertex 5 0 20
    endloop
  endfacet
  facet normal 0 0 1
    outer loop
      vertex 6 0.5 20
      vertex 0 2 20
      vertex 5 0.5 20
    endloop
  endfacet
  facet normal 0 0 1
    outer loop
      vertex 5 0.5 20
      vertex 0 2 20
      vertex 4 0.5 20
    endloop
  endfacet
  facet normal 0 0 1
    outer loop
      vertex 3 0.5 20
      vertex 2 0.5 20
      vertex 3 0 20
    endloop
  endfacet
  facet normal 0 0 1
    outer loop
      vertex 4 0.5 20
      vertex 0 2 20
      vertex 3 0.5 20
    endloop
  endfacet
  facet normal 0 0 1
    outer loop
      vertex 3 0.5 20
      vertex 0 2 20
      vertex 2 0.5 20
    endloop
  endfacet
  facet normal 0 0 1
    outer loop
      vertex 2 0.5 20
      vertex 0 2 20
      vertex 1 0.5 20
    endloop
  endfacet
  facet normal 0 0 1
    outer loop
      vertex 0 0 20
      vertex 1 0.5 20
      vertex 0 2 20
    endloop
  endfacet
  facet normal 0 0 1
    outer loop
      vertex 1 0.5 20
      vertex 0 0 20
      vertex 1 0 20
    endloop
  endfacet
  facet normal 0 0 1
    outer loop
      vertex 59 0 20
      vertex 58 0.5 20
      vertex 58 0 20
    endloop
  endfacet
  facet normal 0 0 1
    outer loop
      vertex 57 0 20
      vertex 56 0.5 20
      vertex 56 0 20
    endloop
  endfacet
  facet normal 0 0 1
    outer loop
      vertex 55 0 20
      vertex 54 0.5 20
      vertex 54 0 20
    endloop
  endfacet
  facet normal 0 0 1
    outer loop
      vertex 53 0 20
      vertex 52 0.5 20
      vertex 52 0 20
    endloop
  endfacet
  facet normal 0 0 1
    outer loop
      vertex 51 0 20
      vertex 50 0.5 20
      vertex 50 0 20
    endloop
  endfacet
  facet normal 0 0 1
    outer loop
      vertex 49 0 20
      vertex 48 0.5 20
      vertex 48 0 20
    endloop
  endfacet
  facet normal 0 0 1
    outer loop
      vertex 47 0 20
      vertex 46 0.5 20
      vertex 46 0 20
    endloop
  endfacet
  facet normal 0 0 1
    outer loop
      vertex 45 0 20
      vertex 44 0.5 20
      vertex 44 0 20
    endloop
  endfacet
  facet normal 0 0 1
    outer loop
      vertex 43 0 20
      vertex 42 0.5 20
      vertex 42 0 20
    endloop
  endfacet
  facet normal 0 0 1
    outer loop
      vertex 41 0 20
      vertex 40 0.5 20
      vertex 40 0 20
    endloop
  endfacet
  facet normal 0 0 1
    outer loop
      vertex 39 0 20
      vertex 38 0.5 20
      vertex 38 0 20
    endloop
  endfacet
  facet normal 0 0 1
    outer loop
      vertex 37 0 20
      vertex 36 0.5 20
      vertex 36 0 20
    endloop
  endfacet
  facet normal 0 0 1
    outer loop
      vertex 35 0 20
      vertex 34 0.5 20
      vertex 34 0 20
    endloop
  endfacet
  facet normal 0 0 1
    outer loop
      vertex 33 0 20
      vertex 32 0.5 20
      vertex 32 0 20
    endloop
  endfacet
  facet normal 0 0 1
    outer loop
      vertex 31 0 20
      vertex 30 0.5 20
      vertex 30 0 20
    endloop
  endfacet
  facet normal 0 0 1
    outer loop
      vertex 29 0 20
      vertex 28 0.5 20
      vertex 28 0 20
    endloop
  endfacet
  facet normal 0 0 1
    outer loop
      vertex 27 0 20
      vertex 26 0.5 20
      vertex 26 0 20
    endloop
  endfacet
  facet normal 0 0 1
    outer loop
      vertex 25 0 20
      vertex 24 0.5 20
      vertex 24 0 20
    endloop
  endfacet
  facet normal 0 0 1
    outer loop
      vertex 23 0 20
      vertex 22 0.5 20
      vertex 22 0 20
    endloop
  endfacet
  facet normal 0 0 1
    outer loop
      vertex 21 0 20
      vertex 20 0.5 20
      vertex 20 0 20
    endloop
  endfacet
  facet normal 0 0 1
    outer loop
      vertex 19 0 20
      vertex 18 0.5 20
      vertex 18 0 20
    endloop
  endfacet
  facet normal 0 0 1
    outer loop
      vertex 17 0 20
      vertex 16 0.5 20
      vertex 16 0 20
    endloop
  endfacet
  facet normal 0 0 1
    outer loop
      vertex 15 0 20
      vertex 14 0.5 20
      vertex 14 0 20
    endloop
  endfacet
  facet normal 0 0 1
    outer loop
      vertex 13 0 20
      vertex 12 0.5 20
      vertex 12 0 20
    endloop
  endfacet
  facet normal 0 0 1
    outer loop
      vertex 11 0 20
      vertex 10 0.5 20
      vertex 10 0 20
    endloop
  endfacet
  facet normal 0 0 1
    outer loop
      vertex 9 0 20
      vertex 8 0.5 20
      vertex 8 0 20
    endloop
  endfacet
  facet normal 0 0 1
    outer loop
      vertex 7 0 20
      vertex 6 0.5 20
      vertex 6 0 20
    endloop
  endfacet
  facet normal 0 0 1
    outer loop
      vertex 5 0 20
      vertex 4 0.5 20
      vertex 4 0 20
    endloop
  endfacet
  facet normal 0 0 1
    outer loop
      vertex 3 0 20
      vertex 2 0.5 20
      vertex 2 0 20
    endloop
  endfacet
endsolid OpenSCAD_Model
